<?xml version="1.0" encoding="iso-8859-1"?>
<!-- Uploaded to: SVG Repo, www.svgrepo.com, Generator: SVG Repo Mixer Tools -->
<svg height="800px" width="800px" version="1.1" id="Layer_1" xmlns="http://www.w3.org/2000/svg"
	 viewBox="0 0 503.322 503.322" xml:space="preserve">
<path style="fill:#546080;" d="M295.051,34.712V17.356C295.051,7.81,287.241,0,277.695,0h-52.068
	c-9.546,0-17.356,7.81-17.356,17.356v17.356h-34.712c-5.207,0-8.678,3.471-8.678,8.678v60.746c0,5.207,3.471,8.678,8.678,8.678
	h156.203c5.207,0,8.678-3.471,8.678-8.678V43.39c0-5.207-3.471-8.678-8.678-8.678H295.051z"/>
<path style="fill:#EFEADD;" d="M338.441,60.746v43.39c0,5.207-3.471,8.678-8.678,8.678H173.559c-5.207,0-8.678-4.339-8.678-8.678
	v-43.39h-52.068c-19.092,0-34.712,15.62-34.712,34.712V468.61c0,19.092,15.62,34.712,34.712,34.712h277.695
	c19.092,0,34.712-15.62,34.712-34.712V95.458c0-19.092-15.62-34.712-34.712-34.712H338.441z"/>
<g>
	<path style="fill:#D4D0BA;" d="M347.119,199.593H156.203c-5.207,0-8.678-3.471-8.678-8.678s3.471-8.678,8.678-8.678h190.915
		c5.207,0,8.678,3.471,8.678,8.678S352.325,199.593,347.119,199.593"/>
	<path style="fill:#D4D0BA;" d="M347.119,277.695H156.203c-5.207,0-8.678-3.471-8.678-8.678c0-5.207,3.471-8.678,8.678-8.678
		h190.915c5.207,0,8.678,3.471,8.678,8.678C355.797,274.224,352.325,277.695,347.119,277.695"/>
	<path style="fill:#D4D0BA;" d="M347.119,355.797H156.203c-5.207,0-8.678-3.471-8.678-8.678c0-5.207,3.471-8.678,8.678-8.678
		h190.915c5.207,0,8.678,3.471,8.678,8.678C355.797,352.325,352.325,355.797,347.119,355.797"/>
	<path style="fill:#D4D0BA;" d="M347.119,433.898H156.203c-5.207,0-8.678-3.471-8.678-8.678s3.471-8.678,8.678-8.678h190.915
		c5.207,0,8.678,3.471,8.678,8.678S352.325,433.898,347.119,433.898"/>
</g>
</svg>